<?xml version="1.0" encoding="utf-8"?>
<!-- Generator: Adobe Illustrator 21.0.2, SVG Export Plug-In . SVG Version: 6.00 Build 0)  -->
<svg version="1.1" id="Balvenie_Logo_Full" xmlns="http://www.w3.org/2000/svg" xmlns:xlink="http://www.w3.org/1999/xlink" x="0px"
	 y="0px" viewBox="0 0 974.2 316.2" style="enable-background:new 0 0 974.2 316.2;" xml:space="preserve">
<path d="M914.3,184l3.4-22.2h-3.5c-4.8,18.2-16.4,15.3-35.1,15.8l-0.1-32.8h16.6c2.4,0.2,5.2,0.8,7.2,2.5c1.7,2.2,2.5,4.6,2.7,7.3
	l2.9-0.1l0-26.4h-2.9c-0.1,2.1-0.3,5.2-1.2,6.9c-1.4,2.7-5.1,4.4-9.1,4.7H879v-35.7c0,0,13.7-0.6,20.1,0.6
	c6.7,1.3,11.4,8.4,13.3,15.8l4.1-0.1L914,98.4c-18.2,0.5-46.2,1-66.2-0.1l0,3.5c4.8,0,10.2,0.5,10.2,4.6V176c0,4.2-5.5,4.7-10.2,4.7
	l0,3.3C868.2,182.9,897.8,183.2,914.3,184"/>
<path d="M675.5,184l3.3-22.2h-3.5c-4.8,18.2-16.4,15.3-35.1,15.8l-0.1-32.8h16.7c2.4,0.2,5.2,0.8,7.2,2.5c1.6,2.2,2.3,4.6,2.6,7.3
	l2.9-0.1l0-26.4h-2.9c-0.1,2.1-0.3,5.2-1.3,6.9c-1.4,2.7-5,4.4-9.2,4.7h-16.1v-35.7c0,0,13.7-0.6,20.1,0.6
	c6.7,1.3,11.5,8.4,13.3,15.8l4.2-0.1l-2.6-21.8c-18.2,0.5-46.2,1-66.2-0.1l0,3.5c4.8,0,10.3,0.5,10.3,4.6V176
	c0,4.2-5.5,4.7-10.3,4.7l0,3.3C629.3,182.9,659,183.2,675.5,184"/>
<path d="M224,184l2.8-18.5h-2.9c-3.9,15.1-13.6,12.8-29.1,13.1l0-27.2h13.8c2,0.2,4.3,0.6,6,2.1c1.3,1.8,2,3.8,2.2,6l2.4-0.1v-22
	h-2.4c-0.1,1.8-0.3,4.3-1.1,5.7c-1.1,2.3-4.2,3.7-7.6,3.9h-13.4v-29.7c0,0,11.3-0.4,16.7,0.5c5.6,1.1,9.6,7,11.1,13.1l3.4,0l-2-18.2
	c-15.1,0.4-38.5,0.9-55-0.1l-0.1,2.6c3.9,0,8.7,0.4,8.7,3.9v58.1c0,3.5-4.7,3.9-8.7,3.9l0.1,2.6C185.7,183.1,210.4,183.4,224,184"/>
<path d="M518.3,98c13.3,1.2,28.6,1,41.8,0.2v3.4c-6.9,0-9.2,3.6-7.8,7.4l17.8,43.3l16.3-44.9c1-2.8-0.4-5.8-7.6-5.8l-0.5-3.4
	c7.7,0.6,19.9,0.6,27.4,0v3.5c-5.6,0-11.4,1.8-13.2,7.2c0,0-18.2,50-27.3,75h-3.9L529,107.5c-2.6-4.6-5.8-5.8-10.7-5.8V98z"/>
<path d="M802.9,176c0,4.2-5.5,4.7-10.2,4.7l-0.1,3.3c7.2-0.4,13.7-0.6,20.6-0.6c7,0,14,0.1,21.1,0.5l0-3.3c-4.7,0-10.2-0.5-10.4-4.7
	v-69.5c0.2-4.2,5.7-4.7,10.4-4.7l0-3.5c-7.1,0.4-14.2,0.6-21.1,0.5c-6.9,0-13.4-0.2-20.6-0.5l0.1,3.5c4.7,0,10.2,0.5,10.2,4.6V176z"
	/>
<path d="M60.5,113.2c1.2-0.6,2-1.4,3.4-0.8l2,16.2c-4.1,0.4-3.1-3.6-4.2-5.4c-3.4-6.9-13.4-5.9-19.9-5v59.3c0,3.5,4.7,3.9,8.7,3.9
	l0,2.5c-6.1-0.3-11.7-0.5-17.6-0.5c-5.9,0-11.5,0.2-17.6,0.5l0.1-2.5c4,0,8.6-0.4,8.6-3.9v-59.3c-6.4-0.8-16.4-1.9-19.8,5
	C3.1,125,4.1,129,0,128.6l2-16.2c1.4-0.6,2.2,0.2,3.4,0.8H60.5z"/>
<path d="M101.1,148.8v28.5c0.2,3.5,4.7,3.8,8.6,3.8l0.1,2.6c-6-0.3-11.8-0.5-17.5-0.5c-5.7,0-11.2,0.2-17.1,0.5l0-2.6
	c3.9,0,8.5-0.3,8.5-3.8v-58c0-3.5-4.6-3.9-8.5-3.9l0-2.6c5.9,0.3,11.4,0.4,17.1,0.4c5.7,0,11.5-0.1,17.5-0.4l-0.1,2.6
	c-3.9,0-8.4,0.4-8.6,3.9v24.2h33.1v-24.1c0-3.5-4.6-3.8-8.5-3.8v-2.7c5.9,0.3,11.4,0.5,17.1,0.5c5.7,0,11.5-0.2,17.5-0.5l-0.1,2.7
	c-3.9,0-8.5,0.3-8.6,3.8v58c0.1,3.4,4.7,3.8,8.6,3.8l0.1,2.6c-6-0.3-11.8-0.5-17.5-0.5c-5.7,0-11.2,0.2-17.1,0.5v-2.6
	c3.9,0,8.5-0.4,8.5-3.9v-28.7H101.1z"/>
<path d="M525.2,183.9c-16.2-0.6-47.1-0.6-66,0l0-3.3c4.7,0,10.2-0.5,10.2-4.7v-69.6c0-4.2-5.5-4.6-10.2-4.6l0-3.5
	c7.2,0.4,13.7,0.6,20.6,0.5c7,0,14-0.2,21.2-0.5l0,3.5c-4.7,0-10.2,0.5-10.4,4.7V172c1.6,6.2,8.5,6.9,15.9,6.9
	c8.1,0,15.3-5.8,17.9-12.9l2.1-6.3l4,0.5L525.2,183.9z"/>
<path d="M716.1,184l-0.6-3.4c-4.8-0.1-10.2-0.5-10.4-4.7l0.2-61.5l61.1,69.4h6.6v-77.7c0.2-4.2,5.7-4.6,10.4-4.7l0.2-3.3
	c-6,0.5-20.5,0.5-27.4,0l0.4,3.3c4.7,0,10.2,0.5,10.2,4.6l0,42.7l-46.1-50.6l-32,0l-0.1,3.5c5.7,0,8.1,0.8,10.3,5.2v69
	c0,4.2-5.4,4.7-10.2,4.7l0,3.4C696.8,183.3,707.9,183.4,716.1,184"/>
<path d="M358.8,180.7c7-0.7,10.6-3.1,12.5-8.3l29.2-74.1h13.1l32.1,75.9c2.2,4.8,5.2,6,10.5,6.7v3.2c-14.1-1.1-32.1-0.7-43.9-0.1
	v-3.2c6.2-0.1,9.6-3.3,8-7.3l-8-18.8h-26.9l-7.1,18.4c-0.9,3.9,1,7.3,8.8,7.8l0.7,3.1c-9.3-0.9-21.5-0.9-28.9-0.1V180.7z
	 M387.4,149.5l23.4,0l-12.5-29L387.4,149.5z"/>
<path d="M348.7,95.7c3.4,6.9,3.1,17.3-2,23.5c-5.7,7.2-11.6,9.5-15.5,10.3c-1.2,0.2-1.4,1.5-0.1,1.5c5.3,0.9,11.6,3,17,7.6
	c6.3,5.1,9.2,12.2,9.2,20.2c-0.2,8.2-5,15.5-11.9,19.6c-7.2,3.8-13.9,5.7-22.2,5.5c-11.3-0.2-28.7-0.8-36.4-0.8s-15.1-0.1-23.1,0.3
	l0.1-3.9c5.3,0,11.4-0.5,11.4-5.5V91.3c0-5-6.1-5.5-11.4-5.6l-0.1-4.1c8,0.4,15.4,0.7,23.1,0.6c7.7,0,25.2-0.2,33.2-0.7
	C334.4,81.7,343.3,86.9,348.7,95.7 M296.8,169.7c0.3,2.4,1.7,4.5,3.8,6.5c3.7,2.6,8.1,3.3,13.1,2.8c8.7-1,14.1-6.6,17.3-14.3
	c2.9-8.3,1.5-17.4-5.2-24.1c-7.4-7-17.5-5.6-28.8-5.7L296.8,169.7z M296.8,128.4h12.5c6.2,0,12.5-4.5,14.7-11.3
	c2.6-10.7-0.9-20.8-7.4-25.8c-5.1-4.4-14.9-4.8-19.9-2.3L296.8,128.4z"/>
<path d="M948.2,111.3l-0.1-0.9v-0.9c0-0.5-0.3-1.2-0.6-1.8c-0.5-0.7-1.2-1-2.1-1.2c0.8-0.1,1.3-0.3,1.8-0.6c0.8-0.5,1.2-1.3,1.2-2.4
	c0-1.5-0.6-2.6-1.9-3.1c-0.5-0.2-1.2-0.3-2-0.4l-1.3-0.1h-4.3v12.2h2.2v-4.8h1.7c1.2,0,1.9,0.2,2.4,0.4c0.8,0.5,1.2,1.4,1.2,2.8v1
	l0,0.4l0,0.1l0,0.1h2l-0.1-0.1C948.2,111.8,948.2,111.6,948.2,111.3 M944.9,105.5c-0.5,0.2-1.1,0.2-2.1,0.2h-1.9v-4.3h1.8
	c1.2,0,2.1,0.2,2.6,0.5c0.6,0.3,0.9,0.8,0.9,1.8C946.2,104.6,945.8,105.2,944.9,105.5"/>
<path d="M951.1,98.2c-1.8-1.8-4-2.8-6.4-3.1l-1.5-0.1c-3.1,0-5.7,1.1-7.8,3.2c-2.2,2.2-3.3,4.8-3.3,7.9c0,3,1.1,5.7,3.3,7.8
	c2.1,2.2,4.7,3.3,7.9,3.3c3,0,5.7-1.1,7.9-3.3c2.1-2.1,3.2-4.8,3.2-7.8C954.4,103,953.3,100.3,951.1,98.2 M950,112.8
	c-1.9,1.9-4.1,2.8-6.8,2.8c-2.7,0-4.9-0.9-6.8-2.8c-1.9-1.8-2.8-4.2-2.8-6.7c0-2.7,0.9-4.9,2.8-6.8c1.8-1.8,4.1-2.8,6.8-2.8
	c2.6,0,4.9,0.9,6.8,2.8c1.9,1.9,2.7,4.1,2.7,6.8C952.8,108.6,951.9,111,950,112.8"/>
<path d="M481.9,3.8c0-1.6-0.8-2.5-1.4-3c-0.9-0.7-9.7-6.1-35.2,25.8c-2.8,3.5-5.3,6.8-7.4,9.9c-4.4,1.6-8.2,2.8-10.7,3.5l-1.1,0.3
	c0,0-8.2,2.2-8.3,2.2c0.3-0.3,0.6-0.6,0.8-0.9c13.4-16.5,16.7-26.5,16.7-32.3c0-0.9-0.1-1.7-0.2-2.4c-0.7-3.6-2.8-5-3.4-5.3
	c-1.5-0.9-5.1-1.2-10,0.2c-0.1,0-0.2,0-0.3,0.1h0c-1,0.3-2.1,0.6-3.2,1.1c-0.1,0-0.1,0.1-0.1,0.1C413.8,4.9,408.6,8,403,13
	c-12.1,10.8-14.9,17.4-15.1,21.1c-0.1,1.8,0.4,3.3,1.5,4.5c0.9,1,2.3,1.4,4.1,1.4c5.9-0.3,15.4-6.5,20.3-13.1
	c0.1-0.2,0.1-0.5-0.1-0.6c-0.2-0.1-0.5-0.1-0.6,0.1c-2.1,2.9-5.1,5.6-8.2,7.8c0,0-0.1,0-0.1,0c-6.3,4.5-11.3,4-12.8,2.2
	c-2.3-2.7,0.1-10.8,4.8-16.1c0,0,0-0.1,0-0.1c1.8-2,4-4.2,6.7-6.5c6.1-5.4,11.6-8.5,16.1-10.2c0,0,0,0,0,0c0.5-0.2,0.9-0.3,1.3-0.4
	c4-1.2,6.7-0.5,7.8,0.6c1.7,1.6,1.8,4.9,0.3,9c-1.6,4.7-6.5,15.2-13.5,25.4c-1.8,2.6-3.3,4.7-4.6,6.4c-8.7,2.3-19,5.3-26.6,9
	c-11.4,5.5-16.4,11.5-17.2,15c-0.1,0.4-0.1,0.7-0.1,1c0,0.8,0.2,1.4,0.7,2c0.7,0.9,2.4,1,3.6,1c0.8,0,1.8-0.1,2.8-0.2c0,0,0,0,0.1,0
	c0.1,0,0.2-0.1,0.3-0.1c8.8-1.4,25.4-8.6,42.1-28.4c0.5-0.1,1.1-0.3,1.5-0.4l8-2.2l1.1-0.3c2.3-0.7,5.7-1.8,9.6-3.1
	c-6.2,9.2-9.3,16.2-9.3,21.3c0,0.6,0,1.2,0.1,1.7c0.5,3.4,2.5,5.1,4.2,6.3c4.2,2.9,13.7,2.3,21.6-2c0.3-0.1,0.5-0.3,0.8-0.4
	c0.2-0.1,0.4-0.3,0.6-0.4c0.3-0.2,0.6-0.3,0.8-0.5c0,0,0,0,0,0c0.7-0.4,1.3-0.9,2-1.4c0.2-0.1,0.2-0.4,0.1-0.6
	c-0.1-0.2-0.4-0.2-0.6-0.1c-0.7,0.6-1.4,1.1-2.2,1.5c-0.8,0.5-1.6,1-2.4,1.4c-0.1,0.1-0.2,0.1-0.3,0.2c-6.7,3.3-13.2,2.6-16.1,0.8
	c-3.9-2.4-2.2-10.5,1.2-17.4c1.5-3.1,4.4-8.1,7.8-13.6c8.4-3.4,17.6-8.1,24.5-14.1c9.8-8.6,11.9-13.6,11.9-16.4
	C481.9,3.9,481.9,3.8,481.9,3.8 M368.5,70.8c-0.3-0.4-0.5-0.9-0.5-1.4c0-0.3,0-0.5,0.1-0.9c0.8-3.6,6.3-9.4,16.7-14.4
	c7.3-3.5,17-6.4,25.4-8.6c-3.2,4.1-4.5,5-4.5,5c-0.2,0.2-17.5,18.5-31.2,20.8c-1.1,0.2-2.2,0.3-3.1,0.3
	C370,71.5,368.9,71.3,368.5,70.8 M457.5,17.2c6.6-8.3,15-16.5,19-16c0.7,0.1,1.3,0.5,1.6,1.2c2.4,4.9-13,21-22.3,26.3
	c0,0,0,0.1-0.1,0.1c-3.2,1.7-6.4,3.2-9.5,4.5C449.7,27.8,453.7,22.1,457.5,17.2"/>
<path d="M501.1,33.7c-1-0.4-2.7,0.5-4.8,2c-0.3,0.2-0.6,0.4-0.9,0.6c0,0,0,0,0,0.1c-3.6,2.9-7.8,7.4-10.4,10.4
	c-3.4,3.9-8.4,8.7-12.5,11c-0.3,0.2-0.6,0.3-0.9,0.4c-0.3,0.1-0.5,0.2-0.7,0.3c-0.9,0.3-1.6,0.3-2.1,0c-0.5-0.4-0.7-1.1-0.4-2
	c0.5-1.9,3.2-6.2,7.3-10.6c4.6-5.1,7.9-9.8,7.9-9.8c0.8-1.1,0.9-2,0.4-2.5c-0.5-0.5-1.5-0.2-2.7,0.7c-1.5,1.2-4.6,4.1-7.3,6.9
	c1.3-3.2,0.8-5.9-0.6-7.2c-1.7-1.5-6.1-2.5-16.4,8.6c-6.1,6.5-9.1,11.3-8.8,14.2c0.1,1,0.5,1.7,1.3,2.3c2.5,1.9,9.9-2.1,17.4-9
	c-1.5,2.4-2.6,5-2.3,7c0.2,1.1,0.7,1.9,1.7,2.5c1.3,0.8,3.1,0.6,4.9-0.2c0.6-0.2,1.3-0.5,2.1-1c0,0,0,0,0,0c5.8-3.4,12-10.6,12.4-11
	c4-4.7,8.2-8.7,11.1-10.9c0.7-0.4,1.2-0.5,1.4-0.5l0.5,0.3c0.2,0.3-0.3,3.1-5.3,9.8c-5.3,7-7.9,11-8.3,11.6c-0.3,0.5-1,1.6,0,2.3
	c0.9,0.6,2,1,3.5-0.7c1.3-1.5,13.8-14.8,18.9-19c1.9-1.6,4-3.2,6-4.3c0,0,0,0,0.1,0c2.8-1.6,3.8-1.2,4.4-0.7
	c0.7,0.6,0.9,2.6-0.8,5.1l-6.3,7.8l-3.1,3.7c-0.6,0.7-2.4,3.3-2,5.6c0.1,0.8,0.6,1.5,1.3,1.9c2.2,1.4,5.8,1.7,19.6-10.2
	c-2.4,3.2-3.7,6.1-3.4,8c0.1,0.9,0.6,1.6,1.4,2.1c3.8,1.9,11.2-2.5,20.5-12.2c-2.5,3.9-4.9,8.5-4.7,11.3c0.1,0.8,0.4,1.5,0.9,2
	c0.9,0.7,2.1,1,3.6,0.8c1.8-0.2,3.9-1.2,6-2.4c0.5-0.3,1.1-0.7,1.7-1.1c0.1,0,0,0.1,0,0c2-1.3,3.9-2.9,5.6-4.6
	c-1.4,3.2-1.9,6-0.4,7.5c1.6,1.6,5.6,1.1,10.4-0.8c0.4-0.1,0.7-0.2,1.1-0.4c0,0,0-0.1,0.1-0.1c4.1-1.8,8.6-4.5,12.6-8.4
	c5.9-5.6,9.5-9.4,12.5-13.8c0.2,0.2,0.3,0.4,0.5,0.5c1.4,1.1,4.1,1.9,7.2,1.8c-2,1.5-3.8,2.9-4.5,3.6c-3.7,3.5-9.8,9.7-9.8,14.1
	c0,0,0,0.1,0,0.1c0,1.2,0.5,2.1,1.4,2.8c4.6,3.8,14.5-3.9,18.8-7.6c-1,2-1.5,3.7-1.4,5.3c0.1,1.3,0.6,2.3,1.5,3
	c1.1,0.8,2.8,0.7,4.9-0.2c0.2-0.1,0.5-0.2,0.7-0.3c0,0,0,0,0.1-0.1c3.2-1.6,7.3-4.8,12.2-9.7c-1.5,2.5-2.8,5.3-2.4,7.5
	c0.2,1.1,0.8,2,1.8,2.6c1.6,0.9,4.2,0.4,7.1-0.9c0.2-0.1,0.3-0.1,0.5-0.2c0,0,0,0,0-0.1c3.1-1.5,6.6-3.9,9.5-6.2
	c-4.6,6-10.1,13.1-12.7,16.1l-3.1,3.5c-3.2,3.6-6.2,7-6.6,7.6c-0.3,0.4-1.1,1.5-0.8,2.5c0.1,0.5,0.5,0.9,1.1,1.2c2,1,3.1,0,4-1.2
	l1.4-1.7c10.4-12.7,18.6-23.3,24.7-31.9c0.6,0.3,1.1,0.4,1.3,0.5c5.7,1.6,12.1-1.8,17.2-5.7c0.2-0.1,0.3-0.2,0.4-0.3
	c0,0,0-0.1,0-0.1c0.5-0.4,0.9-0.8,1.4-1.2c-2.3,2.8-4.3,5.6-5.6,7.8c-2.6,4.5-2.7,9-0.4,10.5c1.1,0.7,4,1.4,10.1-1.5
	c0.5-0.2,1.2-0.6,1.6-0.8c0.1,0,0,0,0,0c1.6-0.8,3.4-1.9,5.4-3.2c-0.4,1.4-0.5,2.7-0.3,3.7c0.2,1.3,0.8,2.2,1.8,2.8
	c3.6,2,12.5-2,20.3-8.8c-1.1,2.2-1.6,4.1-1.4,5.5c0.2,1,0.7,1.7,1.5,2.1c3.2,1.6,5.8-0.7,16.6-10.3l4.2-3.7c-3.2,5-6.2,11-3.7,14.1
	c0.7,0.9,1.8,1.4,3.1,1.5c2.4,0.2,5.5-0.8,8.4-2.4c0.3-0.1,0.6-0.4,0.9-0.5c0.1,0,0,0.1,0,0c1.6-1,3.2-2,4.6-3.1
	c0.1-0.1,0.2-0.2,0.2-0.3c0-0.1,0-0.2-0.1-0.3c-0.2-0.2-0.4-0.2-0.6-0.1c-1.8,1.5-3.7,2.6-5.5,3.6c-4.6,2.2-6.5,1.1-7,0.6
	c-0.9-0.9-0.7-3.8,0.6-6.3l0.3-0.6c1.4-2.9,4.8-9.7,12.4-18.1c8.3-9.1,14.5-16.8,16.2-19.1c0.6-0.9,1.2-2.2,0.6-2.8
	c-0.2-0.3-0.7-0.5-1.7,0c-1.6,0.8-3.6,2.6-5.5,4.8l-2.1,2.4c-4.6,5.2-13.9,15.8-17.2,20.7c0.2-1.1,0.2-2.1,0.1-3
	c-0.2-1.2-0.6-2.1-1.3-2.7c0,0,0-0.1-0.1-0.1c-0.4-0.2-0.9-0.6-1.7-0.7c-3.5-0.7-7.5,2.3-13.6,8.1c-2.9,2.7-5.2,5.7-6.9,8.4
	c-4.1,3.9-8.4,6.8-12.1,8.6c0,0-0.1,0-0.1,0c-3.7,1.7-6.8,1.7-7.4,0.9c-0.4-0.6-0.4-2.3,2-5.9c0.7-1,2.3-3.3,4.1-5.8
	c3.1-1.1,5.6-2.1,7.6-3.3c0,0,0,0,0,0c0.1,0,0.1-0.1,0.1-0.1c1.2-0.7,2.2-1.4,3.1-2.3c2.5-2.3,3.9-4.3,4-5.9c0-0.8-0.2-1.6-0.8-2.2
	c-0.4-0.5-1-0.7-1.7-0.7c-3.6,0-11.1,5.5-15.8,10.6c-2.7,2.9-4.7,6.3-5.8,9.4c-3,2.1-5.6,3.5-7.7,4.5c-2.9,1.3-6.2,2-7.5,0.5
	c-1.4-1.6,1.7-7.2,5.2-11.6l2.1-2.8l10.7-13.4c0.9-1.1,1.8-2.1,2.6-3.1c8.6-0.2,18.8-0.2,23.2-2c0.2-0.1,0.3-0.3,0.3-0.5
	c-0.1-0.2-0.3-0.3-0.5-0.3c-2.7,1-13.4,1.5-22.2,1.8c3.8-4.7,6.1-7.8,6.1-7.9c0.6-0.8,0.7-1.8,0.3-2.3c-0.2-0.3-0.8-0.6-1.9,0.1
	c-1.3,0.8-5.2,5.1-9.6,10.3c-0.2,0-0.3,0-0.5,0l-6.8,0.3c-0.2,0-0.4,0.2-0.4,0.4c0,0.2,0.2,0.3,0.5,0.3l6.4-0.2
	c-1.4,1.6-2.8,3.3-4.2,5l-2.1,2.5c0,0,0,0,0,0c-1.4,1.7-4.2,4.7-7.7,7.4c-5.5,4-10.4,5.4-14.6,4.1c-0.6-0.2-1.2-0.5-1.7-0.8
	c0.4-0.6,0.8-1.2,1.2-1.8c6.6-5.5,13.9-12.1,17-15.8c3.8-4.1,5.7-6.2,7-8c0,0,0,0,0.1,0c3.4-4.3,5.1-7.2,5.1-9.3c0-0.1,0-0.3,0-0.4
	c-0.1-0.8-0.4-1.4-1-1.9c-0.6-0.5-1.5-0.7-2.4-0.5c-5.7,1-15.7,13.6-22.6,24.9l-4.7,6.7l-2.5,3.5c-0.7-0.9-1.2-1.9-1.4-2.7
	c-0.3-0.9-0.6-1.4-1.1-1.7c-0.4-0.2-0.8-0.1-1.2,0.1c-1,0.5-0.9,1.5-0.7,2.7c0.3,2,1.2,3.5,2.3,4.6c-0.7,1-1.5,2.1-2.4,3.2
	c-3.5,3.1-8.3,6.7-12.4,8.6c-2.9,1.2-4.1,0.8-4.6,0.4c-0.6-0.6-0.5-1.6-0.2-2.3c0.6-1.7,3.4-6.1,7.4-10.7c4.4-5,6.7-9,6.7-9
	c0.9-1.5,0.7-2.2,0.4-2.5c-0.5-0.5-1.5-0.2-2.8,0.8c-1.6,1.2-4,3.8-6.3,6.3c1.3-3.4,1-6.6-0.2-7.6c-2.8-2.5-7.9,0.2-17.1,8.8
	c-2.6,2.5-4.7,4.9-6.2,7.2c0,0,0,0,0,0c-1.9,1.9-8.1,7.2-13.4,9.3h0c-1.4,0.5-2.4,0.6-2.8,0.2c-0.4-0.4-0.4-1.2-0.1-2.2
	c0.5-1.3,2.9-5.4,5-8.5c1.4-2.1,3.7-5.3,5.8-8l1.6-1.8c2.4-0.5,4.9-1.6,6.9-3.6c0.1-0.1,1.2-1.2,1.2-2.1c0-0.1,0-0.2,0-0.2l0-0.2
	l-0.3-0.2c-0.6-0.3-2.3,0.6-3.6,1.4c-1,0.6-3.6,2.5-6.2,4.4c-2,0.3-3.5-0.1-4.5-1.2c-1-1.1-1.2-2.6-1-3.6c0.2-0.8,0.3-1.4,2.5-4.5
	c2.4-3.4,3.1-5.5,3.3-6.9c0.3-1.3-0.1-1.9-0.5-2.1c-0.6-0.4-1.5-0.2-2.5,0.5c-2.1,1.4-4.1,4.1-5.9,7.6c-1.8,3.5-2.1,6.2-1,8
	c-3,4.4-6.5,8.2-12.5,13.9c-4.8,4.5-10,7.4-14.4,9c-2.4,0.8-4.8,1.1-5.4-0.4c-1.3-3.2,10.7-19.3,15.3-23.5c2-1.8,3.7-2.6,4.7-2.1
	c0.5,0.3,0.7,0.9,0.6,1.4c-0.3,1.5-0.9,2.7-2.1,3.9c-1.4,1.6-2.4,2.6-2.9,3.5c-0.5,1-0.3,2.1,0.5,2.5c1.6,0.9,2.7,0.2,3.9-1.2
	c0.9-1.1,3-5,2.7-8c-0.2-1.2-0.7-2.1-1.6-2.7c-3.5-2.5-12.6,4.7-17.9,10.6c-1.5,1.7-3.1,3.7-4.4,5.8c0,0,0,0,0,0
	c-2.7,3.8-6.2,6.7-9.5,8.6c-2.8,1.6-5.7,1.8-6.3,1c-0.9-1.1,0.2-3.7,1.1-5.6c0.4-0.8,4.1-7.9,13.7-18.4l4.6-5
	c7.1-7.7,13.8-15,15.2-17c0.7-1,0.9-2,0.4-2.5c-0.2-0.2-0.8-0.7-2-0.2c-1.6,0.7-3.7,2.5-5.8,4.9l-20.3,23.8c0.2-0.8,0.3-1.6,0.2-2.4
	c-0.2-1.2-0.7-2.1-1.7-2.8c-3.5-2.4-9.1,1.6-16.9,8.7c-0.5,0.5-0.9,0.9-1.4,1.4C521.3,53,515.5,57,512.2,58.4c0,0,0,0-0.1,0
	c-1.3,0.5-2.3,0.5-2.7,0c-0.5-0.6-0.2-1.8,0.6-3l4.8-5.7l6.4-7.7c2-2.8,3.2-6.6,0.7-8.7c-2.8-2.3-9.5,1.6-14.7,6.1
	c-2.4,2-6.4,6-10.2,9.9l0.6-1c3.5-5.8,5.3-11.3,4.6-13.6C502,34.2,501.6,33.8,501.1,33.7 M657.1,39C669,19.4,677.6,9.2,680,9.3
	c0.3,0,0.7,0.2,1,0.7c0.3,0.6,0.8,2.4-1.4,6.1c-2.3,3.7-3.1,5-9.5,11.9v0c0,0,0,0,0,0c-2.8,3.3-8.8,8.9-14.8,13.9
	C655.9,40.9,656.5,39.9,657.1,39 M454.6,57.7C454.6,57.7,454.6,57.7,454.6,57.7c-1.5,0.7-2.6,0.8-2.9,0.4c-0.2-0.3-1-2.4,7.5-12.9
	c7.7-9.6,11.9-10,13.3-9.7c0.7,0.1,1.1,0.5,1.2,0.8c0,0,0,0,0,0c0.4,1.6,0.1,4.1-1.9,7.1c-0.4,0.4-0.7,0.8-1,1.1
	c-0.4,0.5-0.9,1-1.3,1.6C463.8,52.3,458.4,56.1,454.6,57.7 M530.1,57.8c-1.8,0.7-2.7,0.5-3,0.3c-0.3-0.2-0.4-0.6-0.4-1.1
	c0.1-1.3,2.8-6.1,6.7-10.6c11.5-13.7,15.6-12.6,16.6-12c0.5,0.5,0.9,1.1,1,1.9c0.2,1.7-0.6,3.7-1.6,4.9
	C540.8,50.9,534.4,55.9,530.1,57.8 M613.6,59.2C613.6,59.2,613.6,59.2,613.6,59.2c-1.4,0.7-2.5,0.8-2.9,0.2c-0.8-1-0.2-5.2,7.4-14.2
	c8.7-10.4,12.6-11.1,13.8-10.9c0.5,0.1,0.7,0.3,0.8,0.4c0,0,0,0,0,0c0.9,1.5,0.7,5.6-1.9,9.3l-0.4,0.5c-0.1,0.1-0.4,0.5-0.8,0.9
	c0,0,0,0,0,0C621.8,53.8,616.8,57.7,613.6,59.2 M704.2,35.2c0.3,0.4,0.5,0.9,0.4,1.6c-0.3,2.3-2.7,5.4-5.6,7.2c-1.7,1-3.8,2-6.4,2.9
	c2.9-3.9,6-8.1,6.8-9l0.2-0.2c1-1.1,2.7-2.9,3.9-2.9C703.7,34.9,704,35,704.2,35.2 M720,49.4c-4.2,3.7-7.1,6.3-9.2,8
	c0,0-0.1,0-0.1,0c-1.2,1-2.5,1.3-3.2,0.9c-0.4-0.2-0.6-0.5-0.6-1c0-0.3,0.1-3.5,5.4-10.7c7.8-10.7,11.6-12.2,13.5-11.9
	c0.3,0.1,0.6,0.2,0.9,0.3c0.7,0.3,1.2,1.2,1.3,2.4c0.3,2.1-0.4,5.2-2.1,6.7L720,49.4z"/>
<path d="M931.4,2c-0.2-0.1-0.5-0.1-0.6,0.1c-0.1,0.1-0.1,0.2-0.1,0.3c0,0.1,0.1,0.3,0.2,0.3c1.7,1.4,2.5,2.9,2.5,4.9
	c0,0.2,0,0.4,0,0.7c-0.1,2.2-2.1,5.5-6,9.1c0,0-0.1,0-0.1,0c-0.8,0.8-2.1,1.9-3.9,3.2c-0.4,0.3-0.7,0.5-1.1,0.8
	c-0.8,0.6-1.8,1.2-2.8,1.8c-0.3,0.2-0.7,0.4-1,0.6c-7.3,4.2-19,8.5-35.8,8.5c-14.8,0-26-1.4-43-3.5l-13.2-1.6
	c-0.6-0.1-1.2-0.1-1.9-0.2c1.3-1.7,2.8-3.9,3.2-4.9c0.2-0.6,0.4-1.2,0.1-1.8l-1-0.7c-1.3-0.3-3,0.7-4,1.6c-0.6,0.5-2.7,3-4.5,5.2
	c-19.5-1.4-24.1,2.3-24.3,2.4c-0.2,0.1-0.2,0.4-0.1,0.5c0.1,0.2,0.3,0.3,0.5,0.2c5-1.7,12.6-1.6,21.8-0.7l-0.4,0.5l-4.8,5.4
	l-2.3,2.6l-0.4,0.5c-0.6,0.7-1.5,1.7-2.4,2.9v0c-3.2,3.7-13.4,12.2-20.9,16.4c-3.7,1.9-5,1.4-5.3,1.1c-0.6-0.4-0.4-1.3-0.3-1.8
	c0.2-0.9,2.5-5.8,7.2-11.2l7.8-9.3c0.9-1.5,0.7-2.2,0.3-2.5c-0.5-0.5-1.5-0.2-2.7,0.7c-1.7,1.3-5,4.7-7.7,7.6c0.6-1.6,1-3.2,1-4.6
	c0-1.6-0.4-2.9-1.1-3.5c-2.8-2.4-7.7,0.1-17,8.8c-7.5,7-8.9,11.4-8.7,13.8c0.1,1.3,0.6,2.3,1.6,3c1.5,1.1,3.7,0.7,6.8-1c0,0,0,0,0,0
	c0,0,0,0,0,0c2.9-1.7,6.6-4.6,11.3-8.9c-1.8,2.7-3.4,5.9-3,8.3c0.2,1.1,0.8,2,1.8,2.6c1.7,1,4.9-0.2,8.7-2.3l0,0
	c5.7-3.2,12.5-8.7,17-12.7c-1.5,2.3-4,7.5-2.8,11.6c0.6,2,1.9,3.5,4,4.4c3.1,1.4,6.8,1.3,10.6,0.4c0,0,0,0,0,0
	c5.5-1.4,11.1-4.7,15.1-8.6c0.1-0.1,0.1-0.2,0.1-0.3c0-0.1,0-0.2-0.1-0.3c-0.2-0.2-0.4-0.2-0.6,0c-4.5,4.4-11.2,7.9-17.2,8.7
	c-3.2,0.3-5.7-0.1-6.8-1.5c-1.8-2.3-0.4-6.8,0.5-8.6c1.2-2.4,4.2-6.4,8-10.9l4.5-5.2l1.5-1.7c0,0,0.1-0.1,0.1-0.1l0.1-0.1l2.9-3.4
	c3.6,0.4,7.4,0.9,11.4,1.5l20.9,2.6c24.3,2.4,43.2,0.5,57.8-5.8c2.3-1,4.3-2.1,6.3-3.2c0.5-0.3,0.9-0.5,1.3-0.8
	c0.9-0.5,1.7-1,2.4-1.6c0.8-0.5,1.4-1,2-1.5c0.4-0.3,0.9-0.6,1.3-1c0.8-0.7,1.5-1.3,1.9-1.7c4.1-3.8,6.2-7.4,6.3-9.7
	c0-0.2,0-0.5,0-0.8C934.2,5.9,933.7,3.9,931.4,2 M766.4,57.6L766.4,57.6c-1.7,0.9-3.1,1.1-3.6,0.5c-0.9-1.1,0.3-5,6.7-12.6
	c8.5-10.2,12.4-10.9,13.6-10.8c0.7,0.1,1,0.4,1,0.6c0,0,0,0,0.1,0c0.2,0.5,0.3,1.2,0.3,1.9c0,2.1-0.8,4.9-2.7,7.4
	c-0.1,0.1-0.2,0.2-0.4,0.4C775,51.4,770,55.5,766.4,57.6"/>
<path d="M682.1,249.4c0.5,0.4,1.3,0.3,2.2,0.2l0.7-0.1c0.3,0,1-0.2,1.7-0.4c2,0.4,5.1,1.9,5.9,5.7c1.1,5-3.1,11.3-7.5,15.1
	c-4.9,4.3-11.7,9.1-17,8.8c-3.1-0.2-3.7-2-3.7-2.8c0-1.5,0.8-3.9,4-7.7c5.7-6.8,15.1-10.8,15.2-10.9c0.2-0.1,0.3-0.2,0.3-0.4
	c0,0,0-0.1,0-0.1c-0.1-0.2-0.4-0.3-0.7-0.2c-1.4,0.4-8.7,2.7-15.6,8.7c-4,3.5-4.7,6.6-4.9,8.7c-0.1,2.2,0.4,4.4,3.9,5.4c0,0,0,0,0,0
	c0.6,0.1,1.3,0.2,1.9,0.2c5,0.1,13.3-2.5,20.1-8.4c6.6-5.7,8-11,8-14.3c0-1.4-0.2-2.5-0.4-3.1c-1-3.2-4.1-4.9-6.8-5.9
	c3.2-1.5,7.4-4,10.6-7.9c1.9-2.4,2.8-5.2,2.8-8c0-3.4-1.3-6.7-3.4-9c4.4-3,8.4-5,11.8-5.8c0.2,0,0.3-0.2,0.3-0.4c0,0,0-0.1,0-0.1
	c-0.1-0.2-0.3-0.4-0.5-0.3c-3.5,0.8-7.7,2.8-12.2,6c0,0-0.1-0.1-0.1-0.1c-4-3.6-15.1-7.1-28.6-4.7c-1.7,0.3-3.3,0.6-4.9,1.1
	c0,0,0,0-0.1,0.1c-4,1.1-8.1,2.8-12.2,5.2c-0.1,0-0.1,0.1-0.2,0.1c-0.4,0.2-0.8,0.4-1.2,0.7c-14.7,8.8-17.8,16.9-18.4,21.1
	c-0.4,3.3,0.5,6.3,2.6,8.3c1.6,1.5,4,2.3,7.1,2.2c3.7-0.1,8.2-1.4,12.3-3.4c0.1-0.1,0.3-0.1,0.4-0.2c0,0,0,0,0.1-0.1
	c3.1-1.6,5.9-3.5,7.9-5.6c6.2-6.4,9.7-12.6,10-17.3c0-0.2-0.2-0.4-0.4-0.4c-0.2,0-0.4,0.2-0.5,0.4c-0.3,4.5-3.8,10.5-9.8,16.8
	c-2.1,2.2-4.9,4.1-8.1,5.7c-6.6,2.9-10.8,2.5-13.1,1.6c-2.7-1-3.6-2.8-3.9-3.3c-4-9.2,9.4-22.3,15.2-25.6c0.1-0.1,0.2-0.1,0.4-0.2
	c5-2.8,9.9-4.7,14.5-5.8c0.2,0,0.4-0.1,0.6-0.1c0.5-0.1,0.9-0.2,1.4-0.3c9.2-1.6,20-0.5,25.8,5.2c0.2,0.2,0.4,0.4,0.5,0.6
	c-6.7,5-14,12.1-21.1,20.6c-14.9,17.8-25.2,25.3-35.2,25.5c-2.8,0-5-0.7-5.7-1.1c-0.8-0.5-1.1-1.2-1.2-1.7c-0.1-0.2-0.1-0.5-0.1-0.8
	c0-0.6,0.1-1.1,0.4-1.5c0.3-0.4,0.3-0.7,0.3-1c0-0.2-0.1-0.4-0.1-0.6c-0.3-0.6-1.1-0.9-2.2-0.9c-1.7,0-2.9,1.7-2.9,2.9
	c0,0.7-0.1,2,1.1,3.1c1.6,1.6,4.9,2.5,9.9,2.5c0.2,0,0.3,0,0.5,0c0,0,0.1,0,0.1,0c12.8,0,23.3-8.1,32.8-16.9
	c6.9-6.4,10.6-11.8,13.1-15.4l1.6-2.2c2.5-3.4,6.8-8.9,9.6-11.7c1.6,2.3,2.2,5.3,1.7,8.5c-0.5,3.5-2.3,6.7-5,9.5
	c-1.2,1-2.6,2.1-3.7,2.9c-0.7,0.4-1.4,0.9-2.1,1.2c-1-0.3-1.9-0.4-2.5-0.5c-1.4-0.1-2.7,0.2-3.2,0.7
	C681.8,248,681.4,249,682.1,249.4 M449.7,239.7c0.8,0.4,2.5,0.7,4.3-2.3c0.5-0.7,0.5-1.7,0.2-2.3c-0.3-0.6-0.9-0.9-1.7-0.9
	c-1.6,0-2.9,0.9-3.7,2.5C448.2,238,448.4,239,449.7,239.7 M509.2,242.8c-0.1,0.8,0.1,1.4,0.5,1.8c0.4,0.4,0.9,0.6,1.6,0.6
	c1.7,0,2.8-1.2,2.9-3.3v0c0.1-0.9-0.1-1.6-0.5-2c-0.3-0.3-0.8-0.4-1.3-0.4C510.9,239.8,509.4,241.3,509.2,242.8 M878.7,239.2
	c1,1,2.6,0.4,3.6-0.7c1.4-1.4,2.2-3.1,2-4.4c-0.1-0.6-0.4-1.1-1-1.4c-1.6-0.8-3.7,1.7-4.2,2.4C878.2,236.6,877.7,238.1,878.7,239.2
	 M538.6,267.2c1.6-0.5,3.2-1.3,5-2.2c0.4,0.8,0.9,1.4,1.7,1.9c2,1,4.7,0.9,7.5,0c0.1,0,0.3-0.1,0.4-0.1c3.4-1.1,6.9-3.3,9.8-6.4
	c4.9-5.2,8.2-9.2,10.1-11.7c0,0,0,0,0.1,0c1.9,0.7,5.1,0.5,7.9-0.1c-3.6,2.7-7.7,6.6-9.7,9.1c-0.8,1-3.5,4.7-3,7.3
	c0.2,0.8,0.6,1.4,1.3,1.9c1.1,0.6,3.2,0.5,5.9-0.5c0.7-0.2,1.3-0.6,1.4-0.7c0.1,0,0,0.1,0,0c3.3-1.5,7.4-4.2,11.9-8.6
	c-1.3,2.4-2.6,5.7-1.9,7.7c0.3,0.8,0.8,1.3,1.6,1.6c0.9,0.3,1.8,0.2,2.7,0.1c1.2-0.2,1.8-0.4,2.4-0.7c2.7-1.2,5.3-3.5,7-5.2
	c2.1-2.1,6.5-6.1,10.3-9.4c-5.8,6.7-12.7,16-16.7,21.6l-1.2,1.6c-3.7,1-7.2,2.2-10.3,3.7c-14.8,6.8-22.9,17.5-24,22.8
	c-0.1,0.4-0.1,0.8-0.1,1.2c0,1,0.3,1.7,0.8,2.3c0,0,0,0,0,0c0,0,0,0,0,0c0.2,0.2,0.4,0.3,0.7,0.4c0.4,0.2,0.9,0.3,1.5,0.3
	c5.7-0.1,19-9.5,25.9-17.2c3.6-4,7.1-8.6,10.5-13.8c4.6-1,9.7-1.7,15-1.9c-0.8,0.9-2,1.9-3.7,2.6c-0.2,0.1-0.3,0.3-0.2,0.5
	c0.1,0.2,0.3,0.3,0.5,0.3c0.2,0,3.8-1,6.2-3.4c6.6,0.2,11.3,1.4,16.7,4.2c5.1,2.7,7.7,6.9,7.7,12.7c0,1.1-0.1,2.5-0.3,3.9
	c-6.8,0.2-14.8,1-23.3,3.5c-21.2,6.2-19,14.8-18.9,15.2c0.4,1.4,1.3,2.5,2.7,3.3c3.8,2,10.8,1.4,20.8-1.8
	c12.2-3.9,19-10.6,21.7-17.4c4.8,0,8.9,0.3,11.4,0.4c17.5,1.2,30.2-0.8,36.5-3.3c5.5-1.7,10.5-4.6,14.1-9.1c0.1-0.2,0.1-0.5-0.1-0.6
	c-0.2-0.1-0.4-0.1-0.6,0.1c-3.3,4.2-7.9,6.9-13,8.6c0,0-0.1,0-0.1,0c-0.2,0.1-0.3,0.1-0.5,0.2c-11.4,3.6-25.2,2.4-33.2,1.6l-3.2-0.3
	c-2.8-0.2-6.3-0.4-10.3-0.4c0.3-1.3,0.5-2.7,0.5-4c0-0.9-0.1-1.8-0.2-2.7c-1.5-8.5-12.6-14.7-27.1-15c-0.1,0-0.2,0-0.4,0
	c0,0,0.1-0.1,0.1-0.1c1.5-2,2-4.2,1.3-5.6c-0.4-0.7-1-1.1-1.8-1.1c-1.6,0-2.5,0.9-2.5,2.5l0.3,1.5l0.2,0.7c0.1,0.6-0.1,1.3-0.6,2
	c-0.4,0-0.8,0-1.3,0c0,0-0.1,0-0.1,0c0,0,0,0,0,0c-4.5,0.2-9.1,0.8-13.6,1.6c2.3-3.6,4.7-7.4,7-11.6c3.9-7,10.7-14.5,10.8-14.5
	c0.1-0.1,0.1-0.2,0.1-0.3c0-0.1,0-0.2-0.1-0.3c-0.1-0.2-0.4-0.2-0.6-0.1c-0.3,0.2-0.7,0.5-1.1,0.8h0l0,0
	c-4.2,3.1-11.7,9.9-14.8,12.9c-1.4,1.4-4.1,3.9-7,5.1c-2.1,0.8-3.1,0.2-3.1-0.5c0-0.3,0.3-1.8,3.8-6.5c1.6-2.1,4.3-6.2,5.2-8
	l0.2-0.4c0.4-0.7,0.6-1.2,0.6-1.7c0-0.2,0-0.4-0.1-0.5c-0.2-0.6-0.6-0.7-0.8-0.8c-0.6-0.1-1.2,0.1-2.1,0.9c-0.9,0.8-3.8,3.6-5.8,6
	c-6.4,6.9-12,10.6-15.9,12.1c-0.9,0.3-2,0.5-2.6,0.2c-0.3-0.1-0.5-0.3-0.6-0.6c-0.2-0.7,0.6-3.2,6-8.9c4-4.2,7.4-8.9,7.9-9.7
	c0,0,0,0,0,0l0,0c0,0,0.1-0.1,0.1-0.1c0.1-0.2,0.1-0.3,0-0.5c-0.1-0.1-0.3-0.2-0.5-0.1c-0.4,0.1-0.9,0.4-1.4,0.7
	c-2.1,0.8-6.1,2-8.7,0.7c-0.3-0.2-0.6-0.4-0.8-0.5c1.8-2.5,4-7.2,4-9.3c0-0.1,0-0.2,0-0.4c-0.1-0.5-0.3-0.7-0.5-0.8
	c-1.5-0.8-4.2,1.6-5.9,4.3c-1.6,2.5-2.1,4.4-1.6,5.8c0.3,0.8,0.8,1.4,1.7,1.9c-2,2.4-5.2,6.4-10,11.4c-2.5,2.7-5.7,4.7-8.7,5.9
	c-0.1,0-0.2,0.1-0.3,0.1c-0.4,0.1-0.8,0.3-1.2,0.4c-2.2,0.5-4.2,0.3-4.8-0.7c-0.2-0.4-0.4-1.4,0-2.7c1-0.6,2-1.3,3-2.1
	c6.7-5.2,12-11.2,12.3-14c0.1-1.5-0.9-1.8-1.8-1.9c-2.4-0.1-6.9,2.9-11.5,7.6c-3.9,4-6.2,8-6.2,10.9c0,0.3,0,0.6,0.1,0.8
	c0,0,0,0,0,0.1c-2.2,1.2-4.4,2.1-6.3,2.7c-0.1,0-0.2,0.1-0.3,0.1c-0.2,0.1-0.5,0.1-0.7,0.2c-1.3,0.3-3.3,0.2-4.1-1
	c-0.8-1.3,0-3.6,2.3-6.7l7-8.6l2.8-3.3c2-2.4,14.9-16.5,15.1-16.6c0.8-0.9,1.1-1.7,1-2.4l-0.6-1.1c-1-0.8-2.7-0.3-4.2,1.3
	c-1.4,1.4-15.8,18.5-18.5,21.7l-1.1,1.3l-4.2,5.2c0,0-0.1,0-0.1,0c-5.6,5.4-9.8,8.2-12.9,9.5c-1.7,0.6-2.8,0.5-3.2,0.3
	c-0.4-0.2-0.6-0.5-0.7-0.8c-0.3-1,0.7-2.6,1.5-4l0.3-0.4c0.9-1.6,5-6.9,9.6-12.4l14.8-18.5c0.7-1.3,0.5-2.1-0.3-2.6
	c-0.8-0.5-2.5-0.3-3.7,0.7c-0.7,0.6-4.5,5.5-9.4,11.8l-4.4,5.6c-0.7,0.9-2.5,3.2-4.3,5.6c0,0-0.1,0-0.1,0
	c-6.6,6.9-13.2,11.5-17.9,13.4c0,0-0.1,0-0.1,0c-1,0.5-2.8,0.7-3.5,0.3c-0.2-0.1-0.3-0.2-0.3-0.3c-0.2-0.8,0-1.3,0.4-2.3
	c0.4-1,2.2-3.5,3.7-5.4l6.1-7.9c0.4-0.4,1.3-1.4,0.9-2.1c-0.3-0.5-1.1-0.3-1.4-0.2c-1.2,0.4-2.1,1.1-2.9,1.8l-0.9,0.7
	c-0.2,0.2-0.7,0.6-1.1,1.1c-7.4,7-13.3,11.7-17.6,14.1c-1.9,1-3.9,1.3-4.8,0.7l-0.2-0.3c-0.1-0.8,0.6-2.4,1.9-4.3
	c1.1-1.5,6.9-8.6,9.4-11.5c1.9-2.3,7.1-8.8,10.2-12.7l2.3-0.2c5.2-0.4,14-1.1,17.1-0.5c0.2,0,0.4-0.1,0.5-0.3c0-0.2-0.1-0.5-0.3-0.5
	c-3.3-0.6-12.1,0.1-17.3,0.5l-1.5,0.1c0.8-1,1.4-1.8,1.6-2.1c1.6-2.2,1.5-2.9,1.3-3.3c-0.2-0.3-0.6-0.3-1.1-0.2
	c-1.2,0.3-2.6,1.3-2.6,1.3c-0.4,0.3-2.3,2.2-4.5,4.5c-3.8,0.3-12,0.3-11.3,0.3c-0.4,0-0.8,0.7-0.2,0.8c1,0.3,4.6,0.2,10.6-0.2
	c-1.3,1.4-2.7,2.8-3.9,4.2c-13.3,13.1-21.9,19.6-27.8,22.8c3-2.9,4.9-6.6,5.6-8.5c0.9-2.2,1.5-6.4,1.6-11.1c0.1-3.4,4.4-6,5.7-6.7
	c0.7-0.4,1.2-1,1.2-1.5c0-0.1,0-0.2,0-0.3c-0.1-0.2-0.4-0.9-1.7-0.8c-0.8,0.1-2.3,0.9-5.6,6.3c-15.4,13.8-25.3,20.5-31.2,23.5
	c0,0,0,0,0,0c-1.2,0.7-4.2,1.9-5.2,1.3c-0.1-0.1-0.3-0.2-0.3-0.6c0-0.4,0.5-2,5.3-7l0.3-0.4c3.6-3.8,7.5-8,8.3-9.5
	c0.5-1,0.5-1.6,0.1-2c-0.5-0.6-1.6-0.2-2.4,0.1c-2.1,0.9-7.2,6.1-10,8.9l-0.9,1c-0.1,0.1-0.2,0.3-0.3,0.4c-3.6,2.6-8.3,5.6-13.8,8.2
	c-0.2,0.1-0.3,0.4-0.2,0.6c0.1,0.2,0.4,0.3,0.6,0.2c4.7-2.1,8.8-4.7,12.1-7c-1.1,2.1-2.2,4.9-1.9,6.7c0.1,0.8,0.5,1.4,1.2,1.7
	c3.1,1.6,14.7-3.9,37.1-23.8c-1,1.9-2.1,4.6-3.2,7.3l-2.9,6.5c-3,5.5-6.4,9.3-8.8,9.5c-0.1,0-0.2,0-0.2,0c0,0-0.1,0-0.1,0
	c-0.4,0-0.7-0.1-0.9-0.3c-0.2-0.2-0.2-0.5-0.2-0.7c0-0.2,0-0.3,0.1-0.4c0.1-0.2,0.1-0.5,0.1-0.8c0-0.5-0.1-1-0.4-1.4
	c-0.3-0.4-0.8-0.7-1.3-0.7c-1.4,0-2,1-2,1.9c0,1.2,0.8,2.7,3.1,3l0.3,0c0.3,0.1,0.7,0.1,1.1,0.1c0,0,0.1,0,0.1,0
	c1,0.1,2.3,0,4.3-0.6c0.1,0,0.1,0,0.1,0c0,0,0.1,0,0.1-0.1c4.8-1.5,12.9-6.1,26.8-18.9c-2.6,3.2-5.8,7.1-7.2,9.3
	c-1.5,2.3-2.9,5.6-2.3,7.7c0.2,0.8,0.7,1.4,1.4,1.8c1.3,0.7,3.5,0.9,7.9-1.7c0,0,0.1,0,0.1-0.1c0,0,0,0,0,0
	c2.8-1.6,6.4-4.2,11.2-8.5c-0.9,1.1-1.7,2.1-2.1,2.7c-0.9,1.5-2.1,3.6-1.5,5.3c0.3,0.9,1.2,1.6,2.5,1.9c1.3,0.4,3.4,0,5.9-1
	c0,0,0,0,0,0c4-1.6,9.1-4.9,14.6-10.1c-0.9,1.3-1.6,2.3-1.9,2.8c-2.4,4-2.6,6.9-0.8,8.6c1,0.9,5.2,3,16.6-7.2
	c-0.7,1.6-1,3.7-0.6,5.3c0.4,1.3,1.2,2.2,2.4,2.6C532.6,268.6,535.5,268.3,538.6,267.2 M561.7,246.7c-0.3,2.5-5.6,8.5-11.9,13.4
	c-0.7,0.5-1.3,1-2,1.4c0.7-1.7,2-4.2,4.4-7.5c3-4.2,7.6-7.9,9.2-8C561.6,246,561.8,246.2,561.7,246.7 M592.4,275.7
	c-4.4,5.9-10.8,14.2-16.9,20.1c-3.4,3.3-12.9,10.3-15.2,8.1c-0.4-0.4-0.5-0.9-0.5-1.7c0-0.3,0-0.7,0.1-1c1-5.2,8.9-15.5,23.5-22.2
	C585.8,277.8,588.9,276.6,592.4,275.7L592.4,275.7z M616.7,313.6C616.7,313.6,616.6,313.7,616.7,313.6c-9.2,2.5-13.7,1.8-15.8,0.6
	c-1.2-0.6-2-1.6-2.3-2.7c-0.4-1.5,0.2-4.1,3.5-7c0,0,0,0,0,0c8.1-6.9,24.4-8.6,37.1-8.8C637.3,302.2,631.6,309.7,616.7,313.6
	 M870.7,267c2.8-1.2,5.9-3.4,9.4-6.6c3.1-2.8,6.3-6.8,9.1-10.5c1,0.4,2.4,0.6,4.1,0.5c0.4,0,1.1-0.1,1.6-0.1c0.1,0-0.1,0.1,0,0
	c1.3-0.1,2.6-0.4,4-0.9c-2.7,1.8-6.2,4.3-8.5,6.6c-2,2-3.9,5.2-3.9,8.1c0,0.4,0,0.7,0.1,1.1c0.3,1.5,1.2,2.6,2.6,3.3
	c2.4,1.1,6.2,0.4,16.6-5.8c0,0.3-0.1,0.5-0.1,0.7c0,1,0.1,2,0.5,3c1,3.2,3.7,5.7,7.9,7.2c7.3,2.8,18.2,0.9,27.3-2.2
	c0.6-0.2,1.1-0.3,1.7-0.5c0.1,0,0.1-0.1,0.1-0.2c3.6-1.3,6.9-2.8,9.4-4.2c10.2-5.9,17.8-15.5,20-20.5c1-2.3,1.7-4.9,1.7-7.1
	c0-1.6-0.4-3.1-1.3-4c-1.8-1.9-4.4-2.2-6.5-0.9c-0.2,0.1-0.3,0.4-0.1,0.6c0.1,0.2,0.4,0.3,0.6,0.1c1.8-1.1,3.9-0.8,5.4,0.8
	c0.7,0.7,1,1.9,1,3.4c0,1.9-0.5,4.3-1.6,6.7c-2.1,4.9-9.6,14.3-19.6,20.1c-2.9,1.7-6.8,3.3-11,4.8c-13.6,4.5-24.8,3.2-29.1-0.8
	c-1.4-1.4-2.2-3.2-2.3-5.5v-0.2c0-1.1,0.2-2.2,0.5-3.3c4.5-2,8.3-4.2,10.1-5.8c1.2-1.1,4.2-4.4,4.2-6.8c0-0.1,0-0.3,0-0.4
	c-0.1-0.8-0.6-1.4-1.3-1.7c-0.5-0.3-1.2-0.2-1.9-0.2c-0.3,0-0.7,0.1-1.2,0.3c-3.9,1-9.1,5.3-12.1,9.8c-1.2,1.9-2,3.8-2.3,5.6
	c-5.3,3.2-9.2,5.2-12,6c-1.4,0.3-2.6,0.3-3.2-0.2c-0.3-0.2-0.4-0.5-0.4-0.8c-0.1-1.8,1.1-4.1,3.4-7.2c0.1-0.1,0.2-0.2,0.3-0.4
	c3.2-4.3,9.8-11.6,9.8-11.7c0.2-0.2,0.1-0.4,0-0.6c-0.1-0.1-0.3-0.1-0.5,0l0,0l0,0c-3.1,1.9-6.4,2.7-9,2.9c-1.6,0-2.7-0.3-3-0.9
	c-0.4-0.8,0.2-2.1,1-3.1v0c2.2-3.1,3.7-5.6,3.9-6c0.2-0.4,0.4-0.9,0.4-1.3c0-0.4-0.2-0.8-0.7-1.1c-1-0.6-3.4,0.6-5.8,3
	c-1.8,1.9-2.9,4.4-2.9,6.5c0,1.1,0.3,2,0.9,2.6c0.1,0.1,0.3,0.1,0.4,0.2c-2.7,3.6-5.8,7.5-8.9,10.3c-4.6,4.3-8,6.2-10.4,7
	c-1.3,0.4-2.3,0.4-2.7,0.1c-0.5-0.4-0.2-1.3,0.1-2.3c0.3-1,1.5-2.8,3-5l6.3-9.4c0.5-0.8,1.7-2.6,0.6-3.4c-0.6-0.4-1.6-0.6-3.3,1.2
	l-0.9,0.9c-0.9,0.9-2.4,2.3-3.8,3.9c-9.6,9.5-15.3,13.3-18.7,14.6c-0.5,0.2-1,0.2-1.4,0.1l-0.3-0.3c-0.2-0.7,0.7-2.3,1.1-2.9l2.7-4
	l2.4-3.5c1.5-2.3,3.1-5.2,2.5-7.4c-0.2-0.8-0.7-1.5-1.6-1.9c-3-1.6-8,2.5-12,5.7l-1.9,1.5c-0.9,0.7-1.9,1.7-2.9,2.7
	c-1.6,1.6-2.8,2-3,1.9c0,0,0.1-0.4,0.1-0.4c0.4-1.3,7-12.9,10.5-18.6c0,0,0.1-0.1,0.1-0.1c3.5-3.3,13.6-14.8,14.5-16.4
	c0.3-0.6,0.5-1.1,0.5-1.6c0-0.4-0.1-0.8-0.4-1c-0.3-0.3-0.9-0.6-2.2,0c-2.3,1.2-10.5,12.2-15.3,19.4c-0.6,0.9-1.3,1.9-2.1,3.1
	c-7.6,7.2-14.2,12.8-19.5,17c1.3-2.7,2.2-6.8,3-10.1l1-3.8c1.2-3.7,2.7-6.3,4.3-7.8c1.6-1.6,3-3,3.5-3.7l0.2-0.3
	c0.3-0.4,0.7-0.9,0.7-1.4c0-0.3-0.1-0.5-0.4-0.7c-0.4-0.3-1.3-0.5-3.8,1.7c-1,0.9-3.4,4.2-5.5,8.3c-9,8.2-15.6,12.5-20.4,14.5
	c-4.4,1.8-7.6,0.6-9.3-0.8c0.6-1.1,1.3-2.3,2.1-3.6c5.3-3,12.5-8.3,17.3-13.5c2.9-3.1,8.8-10,8.8-13.7c0-0.7-0.2-1.2-0.6-1.6
	c-0.5-0.5-1.2-0.7-1.8-0.8c-1.8-0.2-3.7,1.2-4.9,2.1l-0.6,0.5c-1.8,1.2-10.6,9.3-22.9,27.5l-1.4-1.9c-0.8-0.8-1.4-0.9-2.2-0.7
	l-0.9,0.6c-0.4,0.6-0.5,1.4-0.3,2.3c0.1,0.3,0.3,0.7,0.6,1.2l0,0l0,0c0.2,0.3,0.4,0.5,0.7,0.8c-2,0.7-4,1.4-5.9,1.8
	c-2.8,0.6-5.3,0.1-7-0.6c0.2-0.3,0.3-0.6,0.5-0.9c7.2-5.1,15.9-13.4,18.5-16.5c1.7-2.1,8.6-11.2,8-14.5c-0.1-0.5-0.3-0.8-0.7-1
	c0,0,0,0,0,0c0,0,0,0,0,0c0,0-0.1,0-0.1,0c-3.6-1.7-14.2,7.2-29.3,30.7c-1-1.2-1.9-2.8-2.7-4.4c-0.3-0.6-0.8-0.9-1.4-0.9
	c-0.5,0-1,0.3-1.2,0.7c-0.4,0.7-0.5,1.3,0,2.6c0.4,1.1,1.6,3.1,3.7,4.5c-0.8,1.3-1.6,2.5-2.4,3.7c-4.1,2.9-8.7,4.9-12.1,5.8
	c-1.3,0.3-2.2,0.2-2.5-0.3c-0.4-0.6-0.1-1.6,0.7-2.7c1.1-1.3,4-5.3,5.7-8.9c1.9-3.9,1.3-6.6-0.1-7.6c-1.4-1-4.1,0.3-8,3.9l-2.4,2.2
	c-2.3,2-4.9,4.4-6.9,6.3c-1,0.9-1.5,1-1.6,1c0,0,0-0.1,0-0.1c3.6-5.7,4.6-9.8,4.4-11.6c-0.1-0.6-0.3-1-0.8-1.2
	c-0.6-0.3-1.5,0-2.7,0.8l-1.8,1.6c-0.1,0.1-0.3,0.2-0.4,0.2c0,0-0.1,0.1-0.1,0.1l-1.7,1.5l-7.8,7.2c-3.6,3.2-6.4,5.1-8.6,6.3
	c-1.2,0.6-2.6,0.9-3.1,0.6c-0.2-0.1-0.3-0.2-0.3-0.4c-0.1-1,2.5-4.2,4.7-6.8l6.1-7.5c0.5-0.7,1.1-2,0.6-2.7c-0.4-0.4-1-0.4-1.8,0
	c-1,0.5-2.9,1.9-4.7,3.3c0.5-1.4,0.3-2.8-0.3-3.6c-0.1-0.1-0.3-0.3-0.5-0.5c0,0,0,0,0-0.1c0,0-0.1,0-0.1-0.1
	c-0.4-0.3-0.9-0.5-1.7-0.6c-2.2-0.3-6.3,0.6-13.7,6.2c-7.1,5.5-8.1,9.3-7.8,11.4c0.3,1.7,1.4,2.6,2.2,2.9c1.1,0.4,2.6,0.1,4.5-0.8
	c0.1,0,0.1,0,0.1,0c0,0,0,0,0,0c2-1,4.4-2.5,6.7-4.6c1.7-1.5,3.4-2.8,4.9-3.8c-1,1.6-1.9,3.2-2.3,4c-0.5,0.9-0.7,2.5-0.2,3.7
	c0.3,0.7,0.9,1.2,1.6,1.4c1.1,0.3,3-0.1,5.5-1.4c0,0,0.1,0,0.1,0c0,0,0,0,0,0c2.3-1.2,5.2-3.2,8.7-6.3l7.8-7.2l2.1-1.8
	c0.4-0.2,0.7-0.2,0.8-0.2c0,0,0,0,0,0c0,0.1,0,0.2-0.1,0.5c-0.7,1.4-4.9,7.8-6.4,10l-1.3,1.9c-1.1,1.5-2,2.7-2,3.6
	c0,0.7,0.2,1.3,0.7,1.5c0.6,0.3,1.5,0.2,2.7-0.4c2.3-1.2,4.1-3,6.1-5.2c0.5-0.6,1.4-1.4,2.4-2.4c0.1-0.1,0.2-0.2,0.3-0.3
	c0,0,0,0,0,0c1.9-1.8,4.3-4,6.3-5.7l2.4-2.2c1.1-1,2.1-1.8,3-2.4c1-0.8,1.9-0.8,2.1-0.6c0.2,0.2,0.2,0.8-0.4,1.6
	c-1.5,1.9-6.3,8.9-7.5,10.9c-0.9,1.5-1.1,3.1-0.7,4.3c0.4,1,1.3,1.8,2.6,2.3c1.1,0.4,2.8,0.2,4.8-0.3c0,0,0,0,0.1,0c0,0,0,0,0,0
	c3.1-0.8,6.9-2.5,10.6-4.8c-11.6,18-18.6,27.7-27.6,30.1c-0.3,0.1-0.5,0.1-0.8,0.2c-0.4,0.1-0.8,0.2-1.1,0.2c-0.3,0-0.7,0.1-1,0.1
	c-0.7,0.1-1.3,0.1-2,0.1c-2.1,0-4-1-4.9-2.4c-0.2-0.3-0.2-0.6-0.3-1.1c0-0.5,0.2-0.9,0.4-1.1c0.3-0.3,0.6-0.5,0.8-0.5
	c0.8,0,1.3,0,2-0.7c0.5-0.6,0.8-1.3,0.7-2c-0.1-0.5-0.4-1-0.9-1.2c-1.2-0.6-2.3,0.2-2.8,1.2c-0.8,1.4-1.1,2.6-1.1,3.6
	c0,0.7,0.2,1.7,0.6,2.3c1.1,1.7,3.2,2.9,5.6,2.9c0.7,0,1.4,0,2.1-0.1c0.2,0,0.4,0,0.6-0.1c0.6-0.1,1.2-0.2,1.7-0.3
	c0.2,0,0.4-0.1,0.5-0.1c8.8-2.1,20.8-10.5,34.8-34.8c1.9,0.4,4.8,0.4,8.7-0.5c0.1,0,0.1,0,0.2,0c0,0,0,0,0,0c1.7-0.4,3.7-1,5.8-1.8
	c0.1,0.1,0.3,0.3,0.5,0.4c-15.3,23.5-23.2,32.3-23.5,32.6c-0.3,0.3-0.6,0.7-0.6,1.1c0,0.1,0,0.2,0.1,0.3c0.3,0.5,1.1,0.4,1.4,0.3
	c2.1-0.4,4.1-1.6,6.2-3.9c2.1-2.2,14.8-19.3,19.9-28.4c0.5,0.2,1.1,0.4,1.6,0.5c4.4,1.1,12.8-0.8,28.5-14.8
	c-0.3,0.6-0.6,1.3-0.9,1.9c-2.7,6.9-5,11.7-6.8,14.8c-2.6,4.6-5.7,7-9,7.3c-0.5,0-1-0.3-1.2-0.6c-0.1-0.1-0.1-0.3-0.1-0.5
	c0-0.2,0.1-0.5,0.2-0.8l0.5-1.5c0-0.8-0.9-1.7-2-1.7c-0.7,0-1.3,0.3-1.7,0.7c-0.3,0.4-0.7,1.1-0.5,2.3c0.3,2.1,2.9,3,4.7,2.9
	c4.9,0,15.7-7.7,32.2-22.9c-5.3,7.9-12.2,18.3-12.6,19l-0.2,0.3c-0.2,0.4-0.4,0.7-0.4,1c0,0.1,0,0.3,0.1,0.4
	c0.2,0.4,0.7,0.5,1.1,0.5c1.2,0.1,2,0.2,2.8-0.3l1.3-1l0.6-0.5l2.8-3.2c1.3-1.5,2.8-3.4,4.4-5.1c0.1,0,0.1-0.1,0.2-0.1c0,0,0,0,0,0
	c0.9-1,1.8-1.8,2.7-2.5l1.9-1.5c1.9-1.6,4.4-3.5,6.6-4.7c1.2-0.6,2.2-0.6,2.7,0.1c0.5,0.6-0.3,1.7-0.8,2.3
	c-1.1,1.3-6.4,9.1-7.3,10.7c-0.9,1.8-1.3,3.5-0.9,4.8c0.2,0.7,0.7,1.2,1.3,1.5c1,0.5,2.5,0.4,4.3-0.3c0.8-0.2,1.4-0.5,1.5-0.6
	c0,0,0.1-0.1,0.1-0.1c3.5-1.7,8-5.2,13.6-10.3c-1.4,2.4-2.9,6.5-2.1,8.9c0.3,0.8,0.8,1.4,1.6,1.7c1.1,0.4,2.3,0.3,3.7,0
	C868.1,267.9,870.1,267.4,870.7,267 M915.4,251.3c3.4-3.4,5.5-4.9,6.4-4.5c0,0,0.1,0.1,0.1,0.3c0,0.1,0,0.2,0,0.4
	c0,1-0.7,2.9-2.7,5.1c-3.3,3.7-6.9,6-8.6,7C911.8,256.1,913.8,252.9,915.4,251.3 M813,230.4c3.7-4.3,6.2-5.8,7.4-5.9
	c0.4,0.1,0.8,0.1,1.2,0.5c0.2,0.2,0.4,0.6,0.4,1c0,2.3-3.2,7.3-8.6,13.1c-4.3,4.7-10.6,9.5-15.7,12.5
	C802.9,243.5,810.3,233.6,813,230.4 M794.8,229.9c3.3-3.9,5.4-5.5,6.7-5c0.1,0.1,0.2,0.2,0.3,0.4c0.4,2.4-4.7,10.1-7.8,13.8
	c-2.3,2.8-9.8,10-16.5,15.1C782.6,246.3,792.8,232.3,794.8,229.9 M712.1,261.6c-2.4,2.2-4.7,3.7-6.6,4.6c-1,0.4-2.2,0.5-2.6-0.1
	c-0.3-0.4-0.8-2.4,5.1-9.2c8.8-10.2,13.2-8.7,13.9-8.4c0.2,0.1,0.4,0.3,0.4,0.4c0.7,1,0.4,3.3-1.1,4.8c0,0,0,0.1-0.1,0.1
	c-0.5,0.5-0.9,0.9-1.2,1.3c-0.3,0.4-0.7,0.9-1.1,1.4C717.1,257.7,714.5,259.5,712.1,261.6 M341,267.7c0.5,0.7,2.7,2.5,11.6,3.4
	l0.5,0c3.3,0.4,6.5,0.3,9.8,0c0.1,0-0.1,0,0,0c2.7-0.2,6-0.7,9.4-1.8c3.2,0.4,6.9,0.9,6.9,0.9c8.4,0.9,17.5-0.5,26-3.4c0,0,0,0,0,0
	c0.1,0,0.2-0.1,0.4-0.1c10.4-3.6,19.5-9.6,24.7-16.8c4.8-6.7,6.6-13,6.6-18.5c0-5.7-2-10.6-4.8-14.1c-0.3-0.4-0.9-0.7-1.2-1.1
	c4.5-3.3,10.3-6,17.8-6.4c0.2,0,0.4-0.2,0.4-0.4v0c0-0.2-0.2-0.4-0.5-0.4c-7.7,0.5-13.7,3.2-18.4,6.7c-1.9-1.8-4.6-3.4-7.8-4.7
	c-0.9-0.4-1.8-0.7-2.8-1c0,0,0,0-0.1,0c-9.3-2.8-22.4-2.8-37.3,3.5c0,0,0,0,0,0c0,0-0.1,0-0.1,0c-0.6,0.3-1.2,0.5-1.7,0.7
	c-19,8.7-22.7,21.1-23.3,25.8c-0.5,4.4,0.6,7.7,3.2,9.5c6.2,4.4,22.5,3.1,33.6-6.6c11.6-10.1,11.7-17.9,10.7-20.1
	c-0.4-1-1.3-1.8-2.2-2c-0.2-0.1-0.5,0.1-0.5,0.3c-0.1,0.2,0.1,0.5,0.3,0.5c1,0.3,1.5,1.3,1.7,1.5c0.8,1.9,0.6,9.4-10.5,19.1
	c-4.5,3.9-9.8,6.5-14.9,7.9c0,0-0.1,0-0.1,0c-8.4,2.1-14.9,0.2-16.5-5c-3.1-9.5,9.4-26.2,20.6-30.8c17.4-7.4,31.3-6,40-2.4
	c2.9,1.3,4.9,2.9,6.3,4.7c-10.6,7.4-21,19.6-30.2,30.4l-5.1,6.1c-7,8.2-14.1,12.6-20.3,14.9c-0.3,0.1-0.7,0.3-1,0.4
	c-5.4-0.7-11.4-1.5-11.4-1.5l-11.8-1.4c-6.6-0.4-7.9,0-8.1,1.3C340.7,267.1,340.9,267.6,341,267.7 M404.9,266.1
	c-8.4,2.9-17.5,4.2-25.8,3.4c0,0-3.1-0.4-5.1-0.7c10.5-3.5,20.8-10.6,30.7-21.2c2.1-2.2,7.1-8.2,13-16.6l0.8-1.3
	c1.8-2.7,5.2-7.9,10.7-12.2c0.9,1.2,1.5,2.4,2.1,3.7c1.9,4.2,2.4,12.3-1.9,22.7C425.3,253.6,416.1,261.9,404.9,266.1"/>
<path d="M933.9,6h-0.7c-0.3-1.6-1.4-2.2-1.9-3.6h0.5v0.2C932.7,3.2,933.8,4.7,933.9,6"/>
</svg>
